name analog
datacolumns 19
datarows 40
range 0.5405 0.56
endheader
time	ground_force_vx	ground_force_vy	ground_force_vz	ground_force_px	ground_force_py	ground_force_pz	l_ground_force_vx	l_ground_force_vy	l_ground_force_vz	l_ground_force_px	l_ground_force_py	l_ground_force_pz	ground_torque_x	ground_torque_y	ground_torque_z	l_ground_torque_x	l_ground_torque_y	l_ground_torque_z
0.5405	-0.0	-0.0	-0.0	-0.0	-0.0	-0.0	-2.8537771701812744	-2.1571357250213623	-646.3388061523438	-0.0	-0.0	-0.0	-0.0	-0.0	-0.0	173257.46875	-744.9421997070312	-1577.2847900390625
0.541	-0.0	-0.0	-0.0	-0.0	-0.0	-0.0	-2.8833775520324707	-2.495225667953491	-645.4641723632812	-0.0	-0.0	-0.0	-0.0	-0.0	-0.0	172758.71875	-446.2347106933594	-1658.8958740234375
0.5415	-0.0	-0.0	-0.0	-0.0	-0.0	-0.0	-3.6074299812316895	-2.377342939376831	-644.272705078125	-0.0	-0.0	-0.0	-0.0	-0.0	-0.0	172498.34375	-45.50257873535156	-2126.650146484375
0.542	-0.0	-0.0	-0.0	-0.0	-0.0	-0.0	-5.603374481201172	-2.355623245239258	-640.3728637695312	-0.0	-0.0	-0.0	-0.0	-0.0	-0.0	172301.75	415.3923034667969	-2605.25830078125
0.5425	-0.0	-0.0	-0.0	-0.0	-0.0	-0.0	-6.6605424880981445	-1.971885204315185	-640.3441162109375	-0.0	-0.0	-0.0	-0.0	-0.0	-0.0	172187.515625	167.09852600097656	-2852.985595703125
0.543	-0.0	-0.0	-0.0	-0.0	-0.0	-0.0	-6.19542932510376	-1.6852433681488037	-638.89111328125	-0.0	-0.0	-0.0	-0.0	-0.0	-0.0	172186.84375	513.0668334960938	-2921.490966796875
0.5435	-0.0	-0.0	-0.0	-0.0	-0.0	-0.0	-5.109797954559326	-1.2294491529464722	-637.704833984375	-0.0	-0.0	-0.0	-0.0	-0.0	-0.0	171664.359375	451.8562316894531	-2817.29150390625
0.544	-0.0	-0.0	-0.0	-0.0	-0.0	-0.0	-3.718831777572632	-0.699583113193512	-635.4282836914062	-0.0	-0.0	-0.0	-0.0	-0.0	-0.0	171865.921875	367.57275390625	-2608.562744140625
0.5445	-0.0	-0.0	-0.0	-0.0	-0.0	-0.0	-2.2247202396392822	-0.3602068126201629	-633.0665283203125	-0.0	-0.0	-0.0	-0.0	-0.0	-0.0	171729.0	440.4290161132813	-2413.758056640625
0.545	-0.0	-0.0	-0.0	-0.0	-0.0	-0.0	-2.572612762451172	0.2170631140470504	-632.3135986328125	-0.0	-0.0	-0.0	-0.0	-0.0	-0.0	171950.265625	322.7355651855469	-2498.15087890625
0.5455	-0.0	-0.0	-0.0	-0.0	-0.0	-0.0	-2.74322509765625	0.4416084289550781	-632.9046630859375	-0.0	-0.0	-0.0	-0.0	-0.0	-0.0	171953.46875	635.5677490234375	-2817.6455078125
0.546	-0.0	-0.0	-0.0	-0.0	-0.0	-0.0	-1.931441068649292	1.0665627717971802	-630.2451171875	-0.0	-0.0	-0.0	-0.0	-0.0	-0.0	172612.953125	518.6595458984375	-2821.437744140625
0.5465	-0.0	-0.0	-0.0	-0.0	-0.0	-0.0	-1.0245206356048584	1.41314697265625	-629.1187744140625	-0.0	-0.0	-0.0	-0.0	-0.0	-0.0	172434.8125	434.6872863769531	-2718.312744140625
0.547	-0.0	-0.0	-0.0	-0.0	-0.0	-0.0	0.6275729537010193	2.100014925003052	-624.658203125	-0.0	-0.0	-0.0	-0.0	-0.0	-0.0	172251.546875	255.8638153076172	-2427.05908203125
0.5475	-0.0	-0.0	-0.0	-0.0	-0.0	-0.0	1.5967941284179688	2.083331346511841	-622.2138671875	-0.0	-0.0	-0.0	-0.0	-0.0	-0.0	172570.90625	466.2004089355469	-2373.638916015625
0.548	-0.0	-0.0	-0.0	-0.0	-0.0	-0.0	1.8564693927764893	3.450974464416504	-619.39501953125	-0.0	-0.0	-0.0	-0.0	-0.0	-0.0	172205.15625	699.9534912109375	-2569.93798828125
0.5485	-0.0	-0.0	-0.0	-0.0	-0.0	-0.0	1.159627079963684	4.42244291305542	-617.6240234375	-0.0	-0.0	-0.0	-0.0	-0.0	-0.0	172084.359375	528.6128540039062	-2790.743408203125
0.549	-0.0	-0.0	-0.0	-0.0	-0.0	-0.0	0.3800814151763916	5.381340980529785	-614.3578491210938	-0.0	-0.0	-0.0	-0.0	-0.0	-0.0	171510.515625	754.6484985351562	-3168.19580078125
0.5495	-0.0	-0.0	-0.0	-0.0	-0.0	-0.0	0.709686279296875	6.466137886047363	-608.0204467773438	-0.0	-0.0	-0.0	-0.0	-0.0	-0.0	171337.34375	372.2922058105469	-3260.8974609375
0.55	-0.0	-0.0	-0.0	-0.0	-0.0	-0.0	1.4008671045303345	7.556474685668945	-607.5238037109375	-0.0	-0.0	-0.0	-0.0	-0.0	-0.0	171390.1875	406.2898254394531	-3080.08203125
0.5505	-0.0	-0.0	-0.0	-0.0	-0.0	-0.0	2.9396660327911377	9.54482078552246	-606.0310668945312	-0.0	-0.0	-0.0	-0.0	-0.0	-0.0	171240.46875	-82.7157211303711	-2667.290283203125
0.551	-0.0	-0.0	-0.0	-0.0	-0.0	-0.0	4.0987982749938965	11.281145095825195	-603.2864990234375	-0.0	-0.0	-0.0	-0.0	-0.0	-0.0	171110.796875	-430.5731506347656	-2329.607421875
0.5515	-0.0	-0.0	-0.0	-0.0	-0.0	-0.0	5.931708812713623	12.200254440307615	-601.2156982421875	-0.0	-0.0	-0.0	-0.0	-0.0	-0.0	170658.046875	-453.95452880859375	-1825.87744140625
0.552	-0.0	-0.0	-0.0	-0.0	-0.0	-0.0	6.333823204040527	13.018489837646484	-596.3277587890625	-0.0	-0.0	-0.0	-0.0	-0.0	-0.0	169689.65625	-382.4751281738281	-1560.44189453125
0.5525	-0.0	-0.0	-0.0	-0.0	-0.0	-0.0	6.541308879852295	13.33657455444336	-591.044921875	-0.0	-0.0	-0.0	-0.0	-0.0	-0.0	168497.421875	-314.0327453613281	-1382.2762451171875
0.553	-0.0	-0.0	-0.0	-0.0	-0.0	-0.0	4.867603302001953	13.678421974182127	-584.8515625	-0.0	-0.0	-0.0	-0.0	-0.0	-0.0	167140.828125	-43.90021896362305	-1648.48681640625
0.5535	-0.0	-0.0	-0.0	-0.0	-0.0	-0.0	3.104877471923828	13.44752025604248	-580.8988647460938	-0.0	-0.0	-0.0	-0.0	-0.0	-0.0	166107.21875	334.1363220214844	-2044.99462890625
0.554	-0.0	-0.0	-0.0	-0.0	-0.0	-0.0	1.602397918701172	13.87208366394043	-575.6627807617188	-0.0	-0.0	-0.0	-0.0	-0.0	-0.0	164772.078125	529.3599853515625	-2342.5439453125
0.5545	-0.0	-0.0	-0.0	-0.0	-0.0	-0.0	0.8705074191093445	13.424896240234377	-569.2042846679688	-0.0	-0.0	-0.0	-0.0	-0.0	-0.0	163710.984375	552.6323852539062	-2537.82666015625
0.555	-0.0	-0.0	-0.0	-0.0	-0.0	-0.0	0.4435539245605469	12.889520645141602	-566.5439453125	-0.0	-0.0	-0.0	-0.0	-0.0	-0.0	162418.390625	538.9834594726562	-2371.36328125
0.5555	-0.0	-0.0	-0.0	-0.0	-0.0	-0.0	0.6263681054115295	12.265975952148438	-561.784912109375	-0.0	-0.0	-0.0	-0.0	-0.0	-0.0	161319.25	813.6871337890625	-2241.889892578125
0.556	-0.0	-0.0	-0.0	-0.0	-0.0	-0.0	1.3146768808364868	11.819190979003906	-558.9078369140625	-0.0	-0.0	-0.0	-0.0	-0.0	-0.0	160557.75	621.8642578125	-1688.6949462890625
0.5565	-0.0	-0.0	-0.0	-0.0	-0.0	-0.0	1.5810211896896362	11.460881233215332	-554.4320678710938	-0.0	-0.0	-0.0	-0.0	-0.0	-0.0	159525.984375	577.2828979492188	-1625.728759765625
0.557	-0.0	-0.0	-0.0	-0.0	-0.0	-0.0	1.2367706298828125	10.936415672302246	-550.900146484375	-0.0	-0.0	-0.0	-0.0	-0.0	-0.0	158022.46875	779.8479614257812	-1578.930419921875
0.5575	-0.0	-0.0	-0.0	-0.0	-0.0	-0.0	1.1583576202392578	10.131519317626951	-544.9652099609375	-0.0	-0.0	-0.0	-0.0	-0.0	-0.0	156225.78125	873.6943969726562	-1621.2801513671875
0.558	-0.0	-0.0	-0.0	-0.0	-0.0	-0.0	0.527224600315094	8.81711483001709	-538.7012939453125	-0.0	-0.0	-0.0	-0.0	-0.0	-0.0	154698.28125	1093.4339599609375	-1457.664794921875
0.5585	-0.0	-0.0	-0.0	-0.0	-0.0	-0.0	0.4136921763420105	6.884136199951172	-533.7940063476562	-0.0	-0.0	-0.0	-0.0	-0.0	-0.0	152876.171875	1199.031982421875	-1481.1591796875
0.559	-0.0	-0.0	-0.0	-0.0	-0.0	-0.0	-0.1034287586808204	5.716487407684326	-526.1135864257812	-0.0	-0.0	-0.0	-0.0	-0.0	-0.0	150760.65625	1288.1409912109375	-1452.15966796875
0.5595	-0.0	-0.0	-0.0	-0.0	-0.0	-0.0	-0.6952000856399536	4.597535133361816	-520.4520263671875	-0.0	-0.0	-0.0	-0.0	-0.0	-0.0	148859.734375	1263.53076171875	-1304.5443115234375
0.56	-0.0	-0.0	-0.0	-0.0	-0.0	-0.0	-0.5513240694999695	3.4445457458496094	-515.6031494140625	-0.0	-0.0	-0.0	-0.0	-0.0	-0.0	147530.078125	1619.2042236328125	-1395.3204345703125
